<?xml version="1.0" standalone="no"?><!-- Generator: Gravit.io --><svg xmlns="http://www.w3.org/2000/svg" xmlns:xlink="http://www.w3.org/1999/xlink" style="isolation:isolate" viewBox="0 0 512 512" width="512" height="512"><defs><clipPath id="_clipPath_uWQdM5yT29KnRrwPiFnVxjdgmwBozD4h"><rect width="512" height="512"/></clipPath></defs><g clip-path="url(#_clipPath_uWQdM5yT29KnRrwPiFnVxjdgmwBozD4h)"><g><path d=" M 502.215 1 L 451 1 L 171.405 1 C 166.865 1 163.184 4.837 163.184 9.568 L 163.184 34.411 C 163.184 39.141 166.865 42.978 171.405 42.978 C 175.945 42.978 179.627 39.141 179.627 34.411 L 179.627 18.135 L 493.994 18.135 L 493.994 345.73 L 478.375 345.73 C 473.836 345.73 470.154 349.567 470.154 354.298 C 470.154 359.029 473.836 362.865 478.375 362.865 L 502.215 362.865 C 506.755 362.865 510.437 359.029 510.437 354.298 L 510.437 9.568 C 510.437 4.837 506.755 1 502.215 1 Z " fill="rgb(255,255,255)" vector-effect="non-scaling-stroke" stroke-width="0.5" stroke="rgb(255,255,255)" stroke-linejoin="miter" stroke-linecap="butt" stroke-miterlimit="4"/><path d=" M 339.032 150.135 L 8.222 150.135 C 3.682 150.135 0 153.971 0 158.702 L 0 503.432 C 0 508.163 3.682 512 8.222 512 L 339.032 512 C 343.571 512 347.253 508.163 347.253 503.432 L 347.253 158.702 C 347.253 153.971 343.571 150.135 339.032 150.135 Z  M 330.81 494.865 L 16.443 494.865 L 16.443 167.27 L 330.81 167.27 L 330.81 494.865 Z " fill="rgb(255,255,255)" vector-effect="non-scaling-stroke" stroke-width="0.5" stroke="rgb(255,255,255)" stroke-linejoin="miter" stroke-linecap="butt" stroke-miterlimit="4"/></g></g></svg>